<?xml version="1.0" standalone="no"?>
<!DOCTYPE svg PUBLIC "-//W3C//DTD SVG 20010904//EN"
 "http://www.w3.org/TR/2001/REC-SVG-20010904/DTD/svg10.dtd">
<svg version="1.0" xmlns="http://www.w3.org/2000/svg"
 width="1033.000000pt" height="1280.000000pt" viewBox="0 0 1033.000000 1280.000000"
 preserveAspectRatio="xMidYMid meet">
<metadata>
Created by potrace 1.15, written by Peter Selinger 2001-2017
</metadata>
<g transform="translate(0.000000,1280.000000) scale(0.100000,-0.100000)"
fill="#4982cc" stroke="none">
<path d="M5005 12793 c-22 -2 -89 -13 -148 -24 -693 -129 -1228 -731 -1276
-1436 -44 -650 294 -1241 875 -1531 54 -27 127 -60 162 -72 l62 -23 0 -268 0
-269 -82 0 c-141 -1 -223 -29 -299 -105 -26 -25 -54 -63 -64 -85 l-18 -40
-952 0 -953 0 -37 94 c-106 269 -308 464 -524 507 -271 53 -536 -110 -694
-426 -90 -179 -128 -357 -128 -589 1 -333 101 -612 292 -810 133 -139 260
-198 429 -198 73 -1 110 4 160 21 211 73 382 262 480 529 l26 72 949 0 948 0
28 -48 c53 -93 139 -152 252 -173 65 -12 65 -12 61 -43 -27 -212 -71 -1131
-104 -2196 -38 -1223 -62 -1692 -110 -2196 -45 -464 -116 -838 -201 -1054 -56
-142 -148 -261 -222 -289 -40 -15 -154 -14 -234 3 -199 42 -501 190 -763 374
-399 281 -894 734 -1175 1077 -87 107 -175 232 -175 251 0 21 63 27 281 29
l217 3 281 227 c254 206 298 245 273 245 -4 0 -595 301 -1312 668 l-1305 669
-3 -36 c-2 -30 83 -2020 118 -2746 5 -115 13 -292 16 -393 4 -100 9 -182 12
-182 2 0 33 23 68 51 87 69 190 219 505 731 l127 208 43 -103 c154 -367 442
-839 899 -1472 202 -280 274 -368 419 -512 559 -557 1385 -988 2206 -1151 586
-117 1133 -107 1680 29 158 40 663 210 790 266 392 173 690 378 996 683 337
336 531 604 1034 1435 87 143 194 316 239 385 131 203 309 450 324 450 4 0 20
-24 36 -53 46 -84 260 -429 368 -594 99 -151 99 -151 223 -247 69 -53 132 -99
140 -102 13 -5 15 15 15 147 0 85 4 327 10 539 5 212 14 585 20 830 5 245 17
749 26 1121 9 372 14 686 12 697 -3 19 -61 -10 -518 -257 -283 -153 -869 -470
-1303 -704 l-787 -425 260 -202 261 -202 222 -3 c122 -2 238 -7 257 -12 51
-13 53 -54 6 -147 -106 -213 -457 -567 -966 -977 -289 -233 -461 -356 -564
-407 -264 -128 -541 -213 -706 -214 -194 -3 -298 71 -373 262 -29 75 -80 273
-96 375 -46 293 -116 1402 -206 3250 -40 812 -85 1810 -85 1865 l0 36 82 12
c60 9 96 20 136 44 56 34 119 103 140 154 l12 29 949 -3 949 -2 22 -63 c140
-380 423 -600 719 -557 387 57 676 538 648 1080 -42 792 -676 1220 -1132 765
-45 -44 -102 -114 -128 -157 -45 -72 -116 -228 -117 -255 0 -10 -198 -13 -954
-13 l-954 0 -30 53 c-69 123 -180 177 -362 177 l-80 0 0 269 0 269 53 18 c28
9 97 38 152 63 457 215 794 656 880 1156 89 508 -76 1027 -441 1390 -335 334
-796 500 -1269 458z m363 -803 c281 -79 490 -293 568 -580 25 -90 25 -300 0
-390 -139 -505 -682 -749 -1146 -515 -139 70 -275 205 -345 344 -221 440 -11
964 453 1126 40 14 96 29 125 35 81 14 261 4 345 -20z"/>
</g>
</svg>
